<mxfile host="app.diagrams.net" modified="2023-08-13T15:44:05.704Z" agent="Mozilla/5.0 (Windows NT 10.0; Win64; x64) AppleWebKit/537.36 (KHTML, like Gecko) Chrome/115.0.0.0 Safari/537.36" version="21.6.8" etag="OVjpTFqudrM4yC2pJ77I" type="github">
  <diagram name="Страница — 1" id="nU45tFD7qo_JItiwdzKF">
    <mxGraphModel>
      <root>
        <mxCell id="0" />
        <mxCell id="1" parent="0" />
      </root>
    </mxGraphModel>
  </diagram>
</mxfile>
